<svg id="svg" version="1.1"
  xmlns="http://www.w3.org/2000/svg"
  xmlns:xlink="http://www.w3.org/1999/xlink" width="400" height="121.73913043478261" viewBox="0, 0, 400,121.73913043478261">
  <g id="svgg">
    <path id="path0" d="M147.917 51.149 C 143.266 52.391,143.015 59.004,147.550 60.824 C 149.624 61.656,152.836 61.221,154.171 59.926 C 155.111 59.015,155.792 57.838,155.580 57.494 C 155.533 57.418,155.563 57.314,155.647 57.262 C 156.226 56.905,155.592 53.776,154.726 52.714 C 153.582 51.310,150.212 50.535,147.917 51.149 M125.762 51.686 C 124.221 51.909,122.996 52.904,122.523 54.317 C 122.282 55.037,122.259 92.403,122.498 93.917 C 123.084 97.614,124.453 100.110,126.933 102.000 C 127.113 102.138,127.382 102.347,127.530 102.465 C 127.678 102.583,127.958 102.710,128.153 102.747 C 128.347 102.785,128.622 102.932,128.765 103.074 C 128.907 103.217,129.052 103.333,129.087 103.333 C 129.122 103.333,129.585 103.453,130.117 103.598 C 132.830 104.342,137.755 104.477,138.408 103.825 C 138.495 103.738,138.710 103.667,138.884 103.667 C 141.297 103.667,142.313 96.964,140.062 95.896 C 139.709 95.728,139.425 95.678,139.359 95.772 C 139.248 95.933,136.188 95.954,135.583 95.798 C 133.982 95.384,132.986 94.368,132.350 92.500 C 132.303 92.362,132.222 83.888,132.169 73.667 C 132.097 59.467,132.025 54.946,131.867 54.500 C 131.069 52.257,128.860 51.239,125.762 51.686 M204.415 56.510 C 202.805 56.723,201.160 57.871,200.891 58.971 C 200.831 59.216,200.700 59.470,200.599 59.535 C 200.478 59.614,200.398 60.969,200.362 63.562 L 200.307 67.469 197.932 67.526 C 194.974 67.597,193.350 68.476,193.203 70.083 C 193.195 70.175,193.141 70.499,193.084 70.802 C 192.966 71.436,193.261 73.062,193.553 73.382 C 193.662 73.500,193.830 73.744,193.927 73.924 C 194.151 74.335,195.779 75.160,196.333 75.144 C 196.563 75.137,197.556 75.139,198.542 75.149 L 200.333 75.167 200.347 83.458 C 200.355 88.019,200.424 92.162,200.501 92.667 C 200.888 95.212,201.160 96.108,202.225 98.333 C 202.690 99.305,205.204 101.815,206.169 102.269 C 206.580 102.463,207.193 102.753,207.531 102.914 C 207.868 103.076,208.186 103.201,208.236 103.194 C 208.286 103.187,208.594 103.293,208.921 103.429 C 209.248 103.566,209.590 103.631,209.681 103.574 C 209.773 103.518,209.938 103.542,210.049 103.629 C 210.592 104.056,214.154 104.386,215.833 104.164 C 216.521 104.074,217.196 103.991,217.333 103.980 C 218.276 103.907,220.450 103.271,220.709 102.993 C 220.876 102.814,221.082 102.667,221.166 102.667 C 221.799 102.667,222.250 101.085,222.250 98.862 L 222.250 96.642 221.627 96.071 C 221.285 95.757,220.835 95.490,220.627 95.478 C 219.846 95.431,218.745 95.535,218.605 95.669 C 218.525 95.745,218.356 95.768,218.230 95.719 C 218.103 95.671,218.000 95.701,218.000 95.787 C 218.000 96.294,213.580 95.779,212.667 95.166 C 212.529 95.073,212.262 94.918,212.073 94.820 C 210.540 94.026,210.207 91.914,210.177 82.792 L 210.152 75.167 214.034 75.155 C 218.891 75.141,219.286 75.081,220.253 74.217 C 221.889 72.757,221.722 69.056,219.982 68.225 C 218.453 67.494,218.501 67.500,214.266 67.500 L 210.167 67.500 210.167 63.860 C 210.167 59.875,210.039 59.074,209.255 58.142 C 208.176 56.859,206.374 56.252,204.415 56.510 M174.667 66.989 C 174.438 67.063,173.697 67.210,173.021 67.315 C 172.345 67.420,171.707 67.559,171.604 67.623 C 171.501 67.688,171.342 67.759,171.250 67.781 C 170.663 67.921,169.337 68.451,168.762 68.774 C 168.389 68.985,167.803 69.310,167.461 69.497 C 165.807 70.402,163.116 73.794,162.927 75.214 C 162.900 75.417,162.838 75.696,162.789 75.833 C 161.805 78.619,162.775 82.718,164.937 84.915 C 165.834 85.827,167.331 86.951,167.336 86.716 C 167.337 86.643,167.394 86.661,167.461 86.757 C 167.747 87.162,170.558 88.164,171.042 88.034 C 171.110 88.015,171.167 88.070,171.167 88.156 C 171.167 88.242,171.298 88.317,171.458 88.321 C 171.619 88.326,171.975 88.369,172.250 88.417 C 173.029 88.551,175.380 89.001,175.750 89.087 C 175.933 89.129,176.721 89.268,177.500 89.395 C 179.222 89.676,181.503 90.324,181.805 90.619 C 181.926 90.738,182.160 90.907,182.325 90.995 C 183.670 91.716,183.354 94.682,181.808 95.832 C 179.556 97.508,173.743 97.371,168.875 95.527 C 168.394 95.345,168.000 95.238,168.000 95.290 C 168.000 95.342,167.869 95.273,167.708 95.136 C 166.313 93.944,163.861 93.947,162.666 95.142 C 161.881 95.927,161.367 97.891,161.777 98.538 C 161.921 98.764,161.946 98.855,161.979 99.252 C 162.054 100.157,164.914 102.105,167.000 102.672 C 167.412 102.784,167.975 102.973,168.250 103.092 C 169.008 103.421,171.870 103.884,174.913 104.170 C 176.814 104.348,180.722 104.126,181.099 103.818 C 181.199 103.736,181.313 103.702,181.353 103.742 C 181.393 103.782,181.724 103.741,182.088 103.651 C 182.452 103.561,182.975 103.446,183.250 103.396 C 184.113 103.238,186.725 102.032,187.667 101.356 C 188.924 100.454,190.024 99.277,190.865 97.933 C 192.749 94.924,192.516 89.477,190.392 86.878 C 189.285 85.523,186.381 83.667,185.369 83.667 C 185.177 83.667,184.978 83.600,184.928 83.518 C 184.829 83.359,182.957 82.877,182.000 82.764 C 181.679 82.726,181.304 82.652,181.167 82.598 C 180.923 82.504,176.750 81.674,176.083 81.588 C 175.900 81.564,175.563 81.498,175.333 81.441 C 175.104 81.384,174.729 81.315,174.500 81.288 C 171.345 80.917,170.458 76.957,173.113 75.100 C 173.588 74.768,174.188 74.467,174.447 74.432 C 174.705 74.396,175.327 74.275,175.829 74.162 C 176.698 73.966,179.770 74.015,180.583 74.237 C 180.767 74.287,181.390 74.444,181.969 74.587 C 182.548 74.729,183.711 75.149,184.553 75.520 C 186.981 76.592,187.825 76.788,188.545 76.446 C 188.869 76.292,189.240 76.167,189.369 76.167 C 190.550 76.167,191.943 71.564,190.870 71.207 C 190.758 71.169,190.667 71.051,190.667 70.944 C 190.667 70.328,187.469 68.468,185.744 68.080 C 185.472 68.019,185.025 67.871,184.750 67.752 C 184.475 67.633,183.688 67.448,183.000 67.340 C 182.313 67.233,181.487 67.080,181.167 67.000 C 180.432 66.816,175.226 66.808,174.667 66.989 M148.063 67.339 C 147.776 67.427,147.448 67.611,147.334 67.749 C 147.219 67.887,147.025 68.000,146.902 68.000 C 146.779 68.000,146.589 68.169,146.479 68.375 C 146.369 68.581,146.186 68.825,146.073 68.917 C 145.167 69.648,145.153 69.908,145.204 85.750 L 145.250 100.417 145.701 101.349 C 146.122 102.220,147.292 103.500,147.667 103.500 C 147.950 103.500,147.978 103.508,148.575 103.757 C 150.265 104.464,153.057 103.642,154.109 102.128 C 155.159 100.617,155.157 100.650,155.157 85.500 C 155.157 68.988,155.191 69.255,152.923 67.788 C 152.026 67.208,149.308 66.957,148.063 67.339 " stroke="none" fill="#ffffff" fill-rule="evenodd"></path>
    <path id="path1" d="M28.250 8.490 C 28.067 8.563,27.628 8.716,27.275 8.828 C 26.041 9.223,25.192 9.926,24.250 11.335 L 23.750 12.083 23.698 16.125 L 23.645 20.167 56.414 20.167 L 89.184 20.167 89.134 16.292 C 89.079 12.120,88.978 11.635,87.894 10.345 C 87.079 9.376,84.382 8.244,83.778 8.618 C 83.688 8.673,83.668 8.632,83.734 8.526 C 83.874 8.299,28.814 8.263,28.250 8.490 M17.583 24.995 C 15.972 25.465,15.692 25.619,14.754 26.558 C 13.516 27.796,13.456 28.065,13.376 32.792 L 13.307 36.834 56.445 36.792 L 99.583 36.750 99.629 33.454 C 99.684 29.402,99.045 26.668,98.042 26.667 C 97.927 26.667,97.833 26.570,97.833 26.452 C 97.833 26.200,96.040 25.071,95.886 25.225 C 95.828 25.283,95.688 25.253,95.575 25.159 C 95.461 25.065,95.304 25.005,95.226 25.024 C 95.147 25.044,94.783 24.972,94.417 24.865 C 93.175 24.499,18.849 24.625,17.583 24.995 M10.083 42.371 C 9.442 42.553,8.879 42.755,8.833 42.819 C 8.787 42.883,8.487 43.039,8.167 43.166 C 6.143 43.965,4.055 46.428,3.148 49.083 L 2.750 50.250 2.750 79.500 C 2.750 106.599,2.771 108.793,3.031 109.333 C 3.186 109.654,3.404 110.235,3.516 110.625 C 3.628 111.015,3.783 111.333,3.860 111.333 C 3.937 111.333,4.000 111.410,4.000 111.504 C 4.000 112.509,7.219 115.442,8.833 115.907 C 9.063 115.973,9.512 116.152,9.833 116.305 C 10.373 116.563,13.796 116.587,55.667 116.631 C 100.140 116.678,102.639 116.654,103.247 116.177 C 103.340 116.103,103.717 115.948,104.083 115.831 C 104.450 115.714,104.787 115.573,104.833 115.518 C 104.879 115.462,105.174 115.273,105.488 115.098 C 107.317 114.078,108.829 112.091,109.685 109.583 L 110.083 108.417 110.083 79.333 C 110.083 54.725,110.047 50.173,109.850 49.750 C 109.721 49.475,109.588 49.100,109.553 48.917 C 109.469 48.465,108.539 46.493,108.261 46.173 C 106.318 43.946,104.602 42.862,102.167 42.321 C 99.887 41.816,11.868 41.863,10.083 42.371 M266.125 51.191 C 265.781 51.288,265.500 51.426,265.500 51.498 C 265.500 51.571,265.331 51.673,265.125 51.725 C 264.576 51.863,263.424 53.140,263.107 53.962 C 262.792 54.781,262.717 57.500,263.010 57.500 C 263.107 57.500,263.142 57.572,263.088 57.659 C 262.916 57.937,263.476 59.015,264.134 59.673 C 266.230 61.770,271.011 61.826,272.966 59.777 C 275.253 57.381,274.585 52.940,271.722 51.501 C 270.808 51.043,267.341 50.850,266.125 51.191 M310.180 51.683 C 308.789 51.923,306.944 53.393,307.111 54.129 C 307.126 54.195,307.051 54.355,306.944 54.484 C 306.804 54.653,306.735 57.044,306.697 63.142 L 306.644 71.567 306.220 71.025 C 305.720 70.386,303.716 68.833,303.392 68.833 C 303.268 68.833,303.167 68.756,303.167 68.663 C 303.167 68.569,302.979 68.420,302.749 68.333 C 302.520 68.246,301.992 68.020,301.577 67.831 C 301.162 67.641,300.393 67.409,299.869 67.315 C 299.345 67.220,298.780 67.069,298.613 66.979 C 298.220 66.767,293.442 66.771,293.049 66.983 C 292.885 67.072,292.265 67.231,291.673 67.338 C 291.081 67.444,290.331 67.664,290.006 67.826 C 288.070 68.797,287.496 69.123,286.714 69.698 C 285.539 70.560,284.306 71.793,283.729 72.683 C 283.467 73.086,283.204 73.454,283.144 73.500 C 282.451 74.030,280.604 78.857,280.416 80.629 C 280.365 81.112,280.250 81.891,280.162 82.360 C 279.953 83.461,279.953 87.373,280.162 88.475 C 280.251 88.944,280.360 89.696,280.404 90.144 C 280.498 91.108,280.638 91.790,280.836 92.250 C 280.915 92.433,281.096 93.004,281.238 93.519 C 281.681 95.125,283.881 99.000,284.349 99.000 C 284.432 99.000,284.500 99.072,284.500 99.161 C 284.500 99.303,284.916 99.739,286.083 100.818 C 287.613 102.234,289.844 103.311,292.667 103.998 C 295.501 104.687,302.667 103.697,302.667 102.616 C 302.667 102.541,302.731 102.520,302.810 102.569 C 303.025 102.702,305.498 100.833,306.211 100.000 C 306.787 99.328,306.834 99.304,306.845 99.678 C 306.992 104.990,315.358 105.924,316.443 100.750 C 316.613 99.943,316.633 55.683,316.464 54.779 C 316.024 52.422,313.396 51.127,310.180 51.683 M50.865 60.548 C 51.479 60.980,52.033 61.333,52.097 61.333 C 52.161 61.333,52.297 61.437,52.398 61.565 C 52.547 61.750,55.648 63.955,57.061 64.880 C 57.232 64.992,57.544 65.215,57.754 65.375 C 57.964 65.535,58.183 65.667,58.242 65.667 C 58.300 65.667,58.438 65.743,58.549 65.837 C 59.405 66.560,59.766 66.833,59.863 66.833 C 59.925 66.833,60.076 66.927,60.198 67.042 C 60.319 67.156,60.868 67.549,61.418 67.914 C 61.967 68.280,62.454 68.617,62.500 68.664 C 62.546 68.711,63.033 69.047,63.583 69.411 C 64.133 69.774,64.779 70.224,65.018 70.411 C 65.258 70.597,65.623 70.862,65.830 71.000 C 66.037 71.137,66.497 71.456,66.852 71.708 C 67.207 71.960,67.573 72.167,67.665 72.167 C 67.758 72.167,67.833 72.224,67.833 72.294 C 67.833 72.365,68.190 72.663,68.625 72.957 C 69.060 73.251,69.754 73.731,70.167 74.023 C 70.579 74.315,71.483 74.940,72.176 75.410 C 77.357 78.930,77.010 80.604,70.167 85.091 C 69.754 85.362,69.331 85.658,69.227 85.750 C 68.604 86.297,68.351 86.462,68.264 86.375 C 68.211 86.322,68.167 86.364,68.167 86.470 C 68.167 86.576,67.904 86.772,67.583 86.906 C 67.262 87.040,67.000 87.228,67.000 87.325 C 67.000 87.421,66.924 87.500,66.831 87.500 C 66.580 87.500,64.667 88.839,64.667 89.015 C 64.667 89.098,64.604 89.148,64.527 89.125 C 64.392 89.085,62.599 90.272,61.391 91.202 C 61.068 91.450,60.661 91.699,60.485 91.755 C 60.310 91.810,60.167 91.928,60.167 92.017 C 60.167 92.105,60.035 92.231,59.875 92.297 C 59.585 92.416,58.160 93.332,58.000 93.502 C 57.954 93.551,57.694 93.733,57.421 93.907 C 57.148 94.081,56.848 94.288,56.754 94.367 C 56.660 94.445,55.950 94.921,55.175 95.424 C 54.401 95.926,53.708 96.430,53.636 96.544 C 53.564 96.657,53.503 96.675,53.500 96.583 C 53.497 96.492,53.433 96.514,53.358 96.633 C 53.282 96.752,52.982 96.977,52.690 97.133 C 52.397 97.289,51.509 97.866,50.716 98.416 C 48.504 99.948,46.726 99.682,45.705 97.664 L 45.326 96.917 45.372 79.333 C 45.413 63.370,45.442 61.704,45.691 61.250 C 46.695 59.421,48.849 59.129,50.865 60.548 M339.917 66.793 C 339.183 66.817,338.433 66.901,338.250 66.979 C 338.067 67.057,337.255 67.247,336.445 67.401 C 335.636 67.554,334.849 67.747,334.695 67.828 C 334.542 67.909,333.798 68.255,333.042 68.597 C 332.285 68.939,331.667 69.282,331.667 69.360 C 331.667 69.437,331.583 69.500,331.481 69.500 C 330.968 69.500,327.185 72.836,327.292 73.194 C 327.315 73.271,327.257 73.333,327.165 73.333 C 326.845 73.333,325.130 76.235,324.491 77.856 C 323.572 80.187,323.286 81.785,323.224 84.917 C 323.165 87.921,323.492 91.000,323.869 91.000 C 323.952 91.000,323.979 91.066,323.929 91.146 C 323.808 91.343,324.288 92.926,324.719 93.750 C 324.911 94.117,325.075 94.454,325.083 94.500 C 325.273 95.549,328.483 99.667,329.111 99.667 C 329.233 99.667,329.333 99.760,329.334 99.875 C 329.334 100.460,334.520 103.229,334.928 102.862 C 334.997 102.801,335.003 102.838,334.941 102.946 C 334.863 103.082,335.230 103.227,336.123 103.415 C 336.834 103.565,337.580 103.754,337.780 103.835 C 339.506 104.535,346.328 104.347,348.667 103.534 C 348.804 103.487,349.007 103.462,349.118 103.479 C 349.523 103.544,352.456 102.451,353.873 101.708 C 356.902 100.118,358.026 98.084,357.157 95.763 C 356.296 93.461,354.164 93.080,350.932 94.651 C 350.007 95.101,348.988 95.522,348.667 95.587 C 348.346 95.652,348.006 95.767,347.911 95.843 C 347.229 96.389,340.976 96.601,339.417 96.130 C 335.903 95.070,333.553 92.413,332.927 88.794 L 332.819 88.171 343.701 88.109 C 356.635 88.035,355.361 88.078,356.126 87.686 C 357.466 86.999,357.822 86.221,357.815 84.000 C 357.791 76.961,354.361 70.913,349.000 68.459 C 347.123 67.600,346.890 67.519,345.750 67.327 C 345.108 67.220,344.433 67.068,344.250 66.991 C 343.858 66.826,341.803 66.732,339.917 66.793 M378.949 66.798 C 378.116 66.825,377.356 66.909,377.259 66.986 C 377.162 67.062,376.708 67.174,376.250 67.234 C 375.019 67.396,373.843 67.681,373.351 67.938 C 373.112 68.063,372.820 68.165,372.703 68.166 C 372.210 68.168,369.167 69.914,369.167 70.195 C 369.167 70.271,369.056 70.333,368.920 70.333 C 368.583 70.333,365.846 73.064,365.195 74.050 C 364.544 75.035,364.125 75.833,364.258 75.833 C 364.312 75.833,364.239 75.952,364.094 76.097 C 363.949 76.242,363.873 76.429,363.925 76.513 C 363.977 76.598,363.958 76.667,363.882 76.667 C 363.693 76.667,363.083 78.289,362.627 80.000 C 362.284 81.288,362.250 81.787,362.250 85.500 C 362.250 89.607,362.276 89.850,362.944 92.000 C 362.987 92.138,363.010 92.250,362.997 92.250 C 362.946 92.250,363.698 94.109,364.042 94.833 C 364.398 95.585,365.292 97.052,365.804 97.724 C 366.448 98.572,368.826 100.777,369.425 101.083 C 369.784 101.267,370.182 101.514,370.309 101.633 C 370.770 102.065,373.323 103.177,374.439 103.432 C 375.068 103.576,375.716 103.764,375.877 103.849 C 376.930 104.409,384.137 104.385,385.195 103.818 C 385.385 103.716,385.701 103.614,385.896 103.591 C 387.252 103.433,391.167 101.767,391.167 101.349 C 391.167 101.268,391.356 101.155,391.588 101.097 C 392.101 100.968,395.087 98.042,395.783 96.985 C 396.320 96.169,397.325 94.201,397.402 93.815 C 397.427 93.688,397.597 93.246,397.780 92.833 C 398.919 90.257,399.323 81.028,398.323 80.410 C 398.245 80.362,398.222 80.216,398.272 80.086 C 398.322 79.956,398.305 79.755,398.234 79.641 C 398.163 79.526,398.083 79.241,398.057 79.008 C 398.003 78.533,396.908 75.825,396.710 75.678 C 396.640 75.626,396.567 75.496,396.547 75.390 C 396.509 75.195,395.933 74.266,395.381 73.510 C 394.915 72.873,392.353 70.333,392.176 70.333 C 392.089 70.333,391.815 70.146,391.568 69.917 C 391.320 69.688,391.023 69.500,390.906 69.500 C 390.790 69.500,390.669 69.444,390.639 69.375 C 390.569 69.217,388.555 68.167,388.322 68.167 C 388.226 68.167,387.834 68.024,387.449 67.850 C 387.065 67.676,386.150 67.442,385.417 67.330 C 384.683 67.219,383.933 67.064,383.750 66.986 C 383.358 66.818,381.091 66.730,378.949 66.798 M226.500 66.990 C 226.362 67.066,225.890 67.212,225.449 67.316 C 223.050 67.879,221.955 71.047,223.290 73.564 C 223.441 73.850,223.581 74.158,223.599 74.250 C 223.684 74.662,223.995 75.311,224.156 75.410 C 224.254 75.470,224.334 75.646,224.335 75.802 C 224.336 75.957,224.521 76.458,224.746 76.917 C 224.972 77.375,225.159 77.820,225.161 77.906 C 225.164 77.991,225.325 78.404,225.518 78.822 C 226.444 80.827,226.647 81.295,226.849 81.875 C 226.969 82.219,227.127 82.500,227.200 82.500 C 227.273 82.500,227.333 82.609,227.333 82.742 C 227.333 82.949,227.715 83.897,228.745 86.250 C 228.865 86.525,229.199 87.313,229.487 88.000 C 229.775 88.688,230.116 89.475,230.244 89.750 C 230.373 90.025,230.717 90.813,231.009 91.500 C 231.643 92.994,232.088 94.015,232.499 94.917 C 232.667 95.283,233.044 96.146,233.338 96.833 C 234.334 99.162,234.523 99.582,235.053 100.645 C 235.345 101.229,235.683 101.745,235.804 101.793 C 235.926 101.840,236.093 102.056,236.175 102.273 C 236.258 102.489,236.431 102.667,236.561 102.667 C 236.691 102.667,236.841 102.779,236.894 102.916 C 237.501 104.498,243.121 104.394,244.252 102.780 C 244.392 102.580,244.542 102.435,244.587 102.458 C 244.631 102.481,244.648 102.475,244.625 102.445 C 244.602 102.414,244.784 102.208,245.029 101.986 C 245.523 101.539,246.504 99.724,246.545 99.181 C 246.559 98.990,246.621 98.833,246.682 98.833 C 246.818 98.833,247.222 97.884,247.222 97.565 C 247.222 97.438,247.276 97.333,247.341 97.333 C 247.462 97.333,247.825 96.558,247.897 96.145 C 247.918 96.020,248.146 95.467,248.403 94.917 C 249.399 92.785,250.200 90.969,250.237 90.757 C 250.253 90.662,250.412 90.283,250.590 89.917 C 250.768 89.550,250.918 89.212,250.923 89.167 C 250.928 89.121,251.128 88.671,251.367 88.167 C 252.065 86.696,252.667 85.332,252.667 85.222 C 252.667 85.166,252.829 84.774,253.027 84.352 C 253.949 82.387,254.344 81.527,254.643 80.833 C 255.082 79.816,255.387 79.122,255.981 77.788 C 256.257 77.167,256.485 76.622,256.487 76.578 C 256.490 76.533,256.681 76.098,256.911 75.611 C 257.141 75.123,257.377 74.488,257.435 74.198 C 257.493 73.909,257.597 73.707,257.665 73.749 C 257.733 73.791,257.963 73.215,258.176 72.468 C 258.893 69.951,257.501 67.167,255.526 67.167 C 255.339 67.167,255.140 67.092,255.083 67.000 C 255.027 66.908,254.610 66.833,254.157 66.833 C 253.704 66.833,253.333 66.908,253.333 67.000 C 253.333 67.092,253.106 67.167,252.828 67.167 C 251.791 67.167,250.750 67.860,249.877 69.132 C 249.670 69.434,249.500 69.713,249.500 69.752 C 249.500 69.792,249.318 70.221,249.096 70.706 C 248.874 71.191,248.639 71.812,248.574 72.086 C 248.509 72.360,248.355 72.700,248.232 72.842 C 248.109 72.984,247.985 73.247,247.957 73.425 C 247.929 73.604,247.747 74.087,247.551 74.500 C 246.930 75.811,246.298 77.407,246.280 77.708 C 246.270 77.869,246.203 78.000,246.131 78.000 C 246.059 78.000,245.998 78.131,245.995 78.292 C 245.992 78.452,245.879 78.729,245.745 78.907 C 245.610 79.085,245.500 79.348,245.500 79.493 C 245.500 79.637,245.361 80.016,245.191 80.336 C 245.021 80.655,244.787 81.217,244.669 81.583 C 244.552 81.950,244.400 82.325,244.330 82.417 C 244.261 82.508,244.069 83.015,243.905 83.542 C 243.740 84.069,243.553 84.500,243.488 84.500 C 243.423 84.500,243.318 84.705,243.255 84.956 C 243.192 85.206,242.969 85.788,242.760 86.247 C 242.551 86.707,242.322 87.271,242.253 87.500 C 242.183 87.729,242.061 87.998,241.982 88.098 C 241.903 88.197,241.721 88.610,241.579 89.014 C 240.661 91.621,240.800 91.713,239.169 87.417 C 237.949 84.201,237.445 83.000,237.316 83.000 C 237.234 83.000,237.184 82.944,237.204 82.875 C 237.274 82.642,236.791 81.167,236.645 81.167 C 236.565 81.167,236.500 81.029,236.500 80.861 C 236.500 80.693,236.448 80.503,236.384 80.440 C 236.320 80.376,236.253 80.223,236.235 80.100 C 236.217 79.976,236.087 79.622,235.945 79.313 C 235.663 78.697,234.506 75.812,233.929 74.287 C 233.728 73.758,233.500 73.383,233.422 73.454 C 233.344 73.525,233.326 73.503,233.381 73.405 C 233.437 73.306,233.378 73.023,233.249 72.776 C 233.001 72.296,233.000 72.294,233.000 71.929 C 233.000 71.798,232.899 71.589,232.776 71.466 C 232.652 71.343,232.498 70.958,232.433 70.612 C 232.368 70.265,232.175 69.842,232.005 69.671 C 231.834 69.501,231.733 69.322,231.781 69.275 C 231.999 69.056,230.258 67.492,229.602 67.318 C 229.225 67.217,228.786 67.067,228.627 66.984 C 228.272 66.799,226.842 66.803,226.500 66.990 M267.583 67.180 C 266.244 67.330,264.833 68.025,264.833 68.535 C 264.833 68.624,264.688 68.821,264.511 68.973 C 263.607 69.748,263.595 69.943,263.537 84.833 C 263.482 99.000,263.515 99.897,264.151 101.380 C 265.661 104.903,271.318 104.992,272.971 101.519 L 273.417 100.583 273.417 85.500 L 273.417 70.417 273.025 69.583 C 272.662 68.812,271.372 67.406,271.192 67.585 C 271.149 67.628,271.018 67.584,270.901 67.487 C 270.784 67.390,270.290 67.273,269.802 67.227 C 269.315 67.181,268.842 67.127,268.750 67.106 C 268.658 67.085,268.133 67.119,267.583 67.180 M342.828 73.904 C 343.512 74.035,344.143 74.098,344.229 74.045 C 344.314 73.992,344.337 74.026,344.279 74.120 C 344.217 74.219,344.490 74.381,344.926 74.503 C 345.835 74.757,347.818 76.592,348.165 77.500 C 348.288 77.821,348.500 78.215,348.637 78.375 C 348.773 78.535,348.843 78.667,348.791 78.667 C 348.739 78.667,348.800 79.098,348.926 79.625 C 349.052 80.152,349.157 80.863,349.161 81.205 L 349.167 81.827 340.933 81.872 C 336.404 81.897,332.732 81.862,332.773 81.796 C 332.814 81.730,332.883 81.399,332.926 81.060 C 332.970 80.722,333.069 80.363,333.146 80.264 C 333.224 80.165,333.341 79.861,333.406 79.588 C 334.065 76.842,336.776 74.601,340.333 73.862 C 341.401 73.641,341.450 73.642,342.828 73.904 M300.851 74.898 C 302.475 75.460,302.927 75.729,303.926 76.729 C 305.060 77.862,305.869 79.283,306.239 80.790 C 306.369 81.318,306.545 81.975,306.630 82.250 C 306.845 82.939,306.859 87.765,306.650 88.583 C 306.556 88.950,306.400 89.587,306.303 90.000 C 305.942 91.545,305.041 93.140,303.829 94.384 C 303.190 95.040,302.667 95.521,302.667 95.452 C 302.667 95.384,302.306 95.511,301.865 95.734 C 300.982 96.182,298.822 96.549,297.863 96.414 C 297.526 96.367,296.984 96.306,296.659 96.279 C 295.120 96.152,291.955 93.896,291.589 92.667 C 291.521 92.438,291.345 92.063,291.197 91.833 C 291.050 91.604,290.916 91.342,290.898 91.250 C 290.881 91.158,290.743 90.596,290.591 90.000 C 290.070 87.950,290.038 87.619,290.104 84.939 C 290.180 81.912,290.198 81.666,290.338 81.753 C 290.392 81.787,290.529 81.372,290.640 80.831 C 290.948 79.340,293.500 75.121,293.500 76.103 C 293.500 76.170,293.669 76.074,293.875 75.889 C 294.081 75.704,294.700 75.384,295.250 75.178 C 295.800 74.972,296.383 74.754,296.545 74.693 C 297.107 74.484,300.062 74.624,300.851 74.898 M382.485 74.747 C 385.237 75.351,387.231 77.336,388.263 80.500 C 388.866 82.345,388.976 87.977,388.445 89.750 C 388.280 90.300,388.132 90.862,388.114 91.000 C 388.097 91.138,388.046 91.287,388.000 91.333 C 387.954 91.379,387.659 91.904,387.345 92.500 C 384.668 97.571,376.813 97.814,373.839 92.917 C 373.616 92.550,373.355 92.195,373.259 92.128 C 373.162 92.060,373.139 92.004,373.207 92.003 C 373.275 92.001,373.147 91.512,372.922 90.915 C 371.730 87.749,372.101 80.428,373.548 78.542 C 373.636 78.427,373.662 78.333,373.605 78.333 C 373.449 78.333,373.995 77.673,374.921 76.741 C 375.768 75.889,377.075 75.160,378.541 74.721 C 379.085 74.557,381.703 74.575,382.485 74.747 " stroke="none" fill="#fc3535" fill-rule="evenodd"></path>
    <path id="path2" d="M155.750 56.083 C 155.750 56.570,155.806 56.933,155.875 56.891 C 155.944 56.848,156.000 56.485,156.000 56.083 C 156.000 55.682,155.944 55.318,155.875 55.276 C 155.806 55.233,155.750 55.597,155.750 56.083 M122.247 74.000 C 122.247 84.313,122.267 88.531,122.292 83.375 C 122.316 78.219,122.316 69.781,122.292 64.625 C 122.267 59.469,122.247 63.688,122.247 74.000 M210.238 63.917 C 210.238 65.933,210.262 66.735,210.291 65.699 C 210.320 64.663,210.320 63.013,210.291 62.032 C 210.262 61.052,210.238 61.900,210.238 63.917 M165.252 71.165 C 164.989 71.439,164.806 71.690,164.845 71.722 C 164.885 71.755,165.130 71.531,165.391 71.224 C 165.981 70.532,165.894 70.495,165.252 71.165 M210.243 82.500 C 210.243 86.579,210.265 88.248,210.292 86.208 C 210.318 84.169,210.318 80.831,210.292 78.792 C 210.265 76.752,210.243 78.421,210.243 82.500 M171.958 76.089 C 171.542 76.646,171.596 76.801,172.019 76.264 C 172.213 76.017,172.344 75.790,172.311 75.758 C 172.277 75.726,172.119 75.875,171.958 76.089 M188.684 76.347 C 188.465 76.435,188.327 76.549,188.378 76.600 C 188.429 76.651,188.683 76.577,188.944 76.436 C 189.467 76.153,189.308 76.098,188.684 76.347 M192.214 92.583 C 192.216 93.042,192.248 93.209,192.286 92.956 C 192.325 92.703,192.324 92.328,192.284 92.123 C 192.244 91.918,192.213 92.125,192.214 92.583 M122.372 93.833 C 122.372 94.154,122.406 94.285,122.448 94.125 C 122.490 93.965,122.490 93.702,122.448 93.542 C 122.406 93.381,122.372 93.513,122.372 93.833 M161.542 97.750 C 161.544 98.117,161.578 98.247,161.618 98.040 C 161.658 97.832,161.656 97.532,161.615 97.373 C 161.573 97.214,161.540 97.383,161.542 97.750 M222.392 98.833 C 222.392 99.612,222.420 99.931,222.455 99.542 C 222.490 99.152,222.490 98.515,222.455 98.125 C 222.420 97.735,222.392 98.054,222.392 98.833 M162.333 100.051 C 162.333 100.080,162.568 100.325,162.854 100.594 C 163.219 100.937,163.311 100.978,163.163 100.733 C 162.980 100.430,162.333 99.899,162.333 100.051 M203.833 100.583 C 204.144 100.904,204.436 101.167,204.482 101.167 C 204.528 101.167,204.311 100.904,204.000 100.583 C 203.689 100.263,203.397 100.000,203.351 100.000 C 203.305 100.000,203.522 100.263,203.833 100.583 " stroke="none" fill="#fc3535" fill-rule="evenodd"></path>
    <path id="path3" d="M341.208 73.782 C 341.369 73.823,341.631 73.823,341.792 73.782 C 341.952 73.740,341.821 73.705,341.500 73.705 C 341.179 73.705,341.048 73.740,341.208 73.782 M323.212 85.500 C 323.212 85.912,323.245 86.081,323.284 85.875 C 323.324 85.669,323.324 85.331,323.284 85.125 C 323.245 84.919,323.212 85.087,323.212 85.500 " stroke="none" fill="#fc3535" fill-rule="evenodd"></path>
    <path id="path4" d="" stroke="none" fill="#fc3535" fill-rule="evenodd"></path>
  </g>
</svg>